<?xml version="1.0" encoding="UTF-8" standalone="no"?>
<!DOCTYPE svg PUBLIC "-//W3C//DTD SVG 1.1//EN"
 "http://www.w3.org/Graphics/SVG/1.1/DTD/svg11.dtd">
<!-- Generated by graphviz version 14.1.1 (20251213.1925)
 -->
<!-- Title: InheritanceTree Pages: 1 -->
<svg width="314pt" height="429pt"
 viewBox="0.00 0.00 314.00 429.00" xmlns="http://www.w3.org/2000/svg" xmlns:xlink="http://www.w3.org/1999/xlink">
<g id="graph0" class="graph" transform="scale(1 1) rotate(0) translate(4 424.5)">
<title>InheritanceTree</title>
<polygon fill="white" stroke="none" points="-4,4 -4,-424.5 310.25,-424.5 310.25,4 -4,4"/>
<text xml:space="preserve" text-anchor="middle" x="153.12" y="-7.2" font-family="Times New Roman,serif" font-size="14.00">simple_math &#45; Inheritance Hierarchy</text>
<!-- SIMPLE_MATH -->
<g id="node1" class="node">
<title>SIMPLE_MATH</title>
<path fill="none" stroke="black" d="M115.38,-60.5C115.38,-60.5 28.88,-60.5 28.88,-60.5 22.88,-60.5 16.88,-54.5 16.88,-48.5 16.88,-48.5 16.88,-36.5 16.88,-36.5 16.88,-30.5 22.88,-24.5 28.88,-24.5 28.88,-24.5 115.38,-24.5 115.38,-24.5 121.38,-24.5 127.38,-30.5 127.38,-36.5 127.38,-36.5 127.38,-48.5 127.38,-48.5 127.38,-54.5 121.38,-60.5 115.38,-60.5"/>
<text xml:space="preserve" text-anchor="middle" x="72.12" y="-37.45" font-family="Times New Roman,serif" font-size="14.00">SIMPLE_MATH</text>
</g>
<!-- SIMPLE_MATRIX -->
<g id="node2" class="node">
<title>SIMPLE_MATRIX</title>
<path fill="none" stroke="black" d="M122.12,-204.5C122.12,-204.5 22.12,-204.5 22.12,-204.5 16.12,-204.5 10.12,-198.5 10.12,-192.5 10.12,-192.5 10.12,-180.5 10.12,-180.5 10.12,-174.5 16.12,-168.5 22.12,-168.5 22.12,-168.5 122.12,-168.5 122.12,-168.5 128.12,-168.5 134.12,-174.5 134.12,-180.5 134.12,-180.5 134.12,-192.5 134.12,-192.5 134.12,-198.5 128.12,-204.5 122.12,-204.5"/>
<text xml:space="preserve" text-anchor="middle" x="72.12" y="-181.45" font-family="Times New Roman,serif" font-size="14.00">SIMPLE_MATRIX</text>
</g>
<!-- ANY -->
<g id="node3" class="node">
<title>ANY</title>
<path fill="none" stroke="black" d="M294.25,-168.5C294.25,-168.5 264.25,-168.5 264.25,-168.5 258.25,-168.5 252.25,-162.5 252.25,-156.5 252.25,-156.5 252.25,-144.5 252.25,-144.5 252.25,-138.5 258.25,-132.5 264.25,-132.5 264.25,-132.5 294.25,-132.5 294.25,-132.5 300.25,-132.5 306.25,-138.5 306.25,-144.5 306.25,-144.5 306.25,-156.5 306.25,-156.5 306.25,-162.5 300.25,-168.5 294.25,-168.5"/>
<text xml:space="preserve" text-anchor="middle" x="279.25" y="-145.45" font-family="Times New Roman,serif" font-size="14.00">ANY</text>
</g>
<!-- SIMPLE_MATRIX&#45;&gt;ANY -->
<g id="edge1" class="edge">
<title>SIMPLE_MATRIX&#45;&gt;ANY</title>
<path fill="none" stroke="black" d="M134.55,-186.5C195.54,-186.5 279.25,-186.5 279.25,-186.5 279.25,-186.5 279.25,-180.44 279.25,-180.44"/>
<polygon fill="none" stroke="black" points="282.75,-180.44 279.25,-170.44 275.75,-180.44 282.75,-180.44"/>
</g>
<!-- SIMPLE_STATISTICS -->
<g id="node4" class="node">
<title>SIMPLE_STATISTICS</title>
<path fill="none" stroke="black" d="M132.25,-276.5C132.25,-276.5 12,-276.5 12,-276.5 6,-276.5 0,-270.5 0,-264.5 0,-264.5 0,-252.5 0,-252.5 0,-246.5 6,-240.5 12,-240.5 12,-240.5 132.25,-240.5 132.25,-240.5 138.25,-240.5 144.25,-246.5 144.25,-252.5 144.25,-252.5 144.25,-264.5 144.25,-264.5 144.25,-270.5 138.25,-276.5 132.25,-276.5"/>
<text xml:space="preserve" text-anchor="middle" x="72.12" y="-253.45" font-family="Times New Roman,serif" font-size="14.00">SIMPLE_STATISTICS</text>
</g>
<!-- SIMPLE_VECTOR -->
<g id="node5" class="node">
<title>SIMPLE_VECTOR</title>
<path fill="none" stroke="black" d="M122.88,-132.5C122.88,-132.5 21.38,-132.5 21.38,-132.5 15.38,-132.5 9.38,-126.5 9.38,-120.5 9.38,-120.5 9.38,-108.5 9.38,-108.5 9.38,-102.5 15.38,-96.5 21.38,-96.5 21.38,-96.5 122.88,-96.5 122.88,-96.5 128.88,-96.5 134.88,-102.5 134.88,-108.5 134.88,-108.5 134.88,-120.5 134.88,-120.5 134.88,-126.5 128.88,-132.5 122.88,-132.5"/>
<text xml:space="preserve" text-anchor="middle" x="72.12" y="-109.45" font-family="Times New Roman,serif" font-size="14.00">SIMPLE_VECTOR</text>
</g>
<!-- SIMPLE_VECTOR&#45;&gt;ANY -->
<g id="edge2" class="edge">
<title>SIMPLE_VECTOR&#45;&gt;ANY</title>
<path fill="none" stroke="black" d="M135.11,-114.5C196.05,-114.5 279.25,-114.5 279.25,-114.5 279.25,-114.5 279.25,-120.56 279.25,-120.56"/>
<polygon fill="none" stroke="black" points="275.75,-120.56 279.25,-130.56 282.75,-120.56 275.75,-120.56"/>
</g>
<!-- LIB_TESTS -->
<g id="node6" class="node">
<title>LIB_TESTS</title>
<path fill="none" stroke="black" d="M102.25,-348.5C102.25,-348.5 42,-348.5 42,-348.5 36,-348.5 30,-342.5 30,-336.5 30,-336.5 30,-324.5 30,-324.5 30,-318.5 36,-312.5 42,-312.5 42,-312.5 102.25,-312.5 102.25,-312.5 108.25,-312.5 114.25,-318.5 114.25,-324.5 114.25,-324.5 114.25,-336.5 114.25,-336.5 114.25,-342.5 108.25,-348.5 102.25,-348.5"/>
<text xml:space="preserve" text-anchor="middle" x="72.12" y="-325.45" font-family="Times New Roman,serif" font-size="14.00">LIB_TESTS</text>
</g>
<!-- TEST_APP -->
<g id="node7" class="node">
<title>TEST_APP</title>
<path fill="none" stroke="black" d="M100,-420.5C100,-420.5 44.25,-420.5 44.25,-420.5 38.25,-420.5 32.25,-414.5 32.25,-408.5 32.25,-408.5 32.25,-396.5 32.25,-396.5 32.25,-390.5 38.25,-384.5 44.25,-384.5 44.25,-384.5 100,-384.5 100,-384.5 106,-384.5 112,-390.5 112,-396.5 112,-396.5 112,-408.5 112,-408.5 112,-414.5 106,-420.5 100,-420.5"/>
<text xml:space="preserve" text-anchor="middle" x="72.12" y="-397.45" font-family="Times New Roman,serif" font-size="14.00">TEST_APP</text>
</g>
</g>
</svg>
