<?xml version="1.0" encoding="UTF-8" standalone="no"?>
<!DOCTYPE svg PUBLIC "-//W3C//DTD SVG 1.1//EN"
 "http://www.w3.org/Graphics/SVG/1.1/DTD/svg11.dtd">
<!-- Generated by graphviz version 14.1.1 (20251213.1925)
 -->
<!-- Title: Dependencies Pages: 1 -->
<svg width="335pt" height="357pt"
 viewBox="0.00 0.00 335.00 357.00" xmlns="http://www.w3.org/2000/svg" xmlns:xlink="http://www.w3.org/1999/xlink">
<g id="graph0" class="graph" transform="scale(1 1) rotate(0) translate(4 352.5)">
<title>Dependencies</title>
<polygon fill="white" stroke="none" points="-4,4 -4,-352.5 330.75,-352.5 330.75,4 -4,4"/>
<text xml:space="preserve" text-anchor="middle" x="163.38" y="-7.2" font-family="Times New Roman,serif" font-size="14.00">simple_math &#45; Dependencies</text>
<!-- simple_math -->
<g id="node1" class="node">
<title>simple_math</title>
<polygon fill="lightblue" stroke="black" points="87.25,-204.5 0,-204.5 0,-168.5 87.25,-168.5 87.25,-204.5"/>
<text xml:space="preserve" text-anchor="middle" x="43.62" y="-181.45" font-family="Times New Roman,serif" font-size="14.00">simple_math</text>
</g>
<!-- simple_mml -->
<g id="node2" class="node">
<title>simple_mml</title>
<polygon fill="lightblue" stroke="black" points="321.88,-348.5 236.12,-348.5 236.12,-312.5 321.88,-312.5 321.88,-348.5"/>
<text xml:space="preserve" text-anchor="middle" x="279" y="-325.45" font-family="Times New Roman,serif" font-size="14.00">simple_mml</text>
</g>
<!-- simple_math&#45;&gt;simple_mml -->
<g id="edge1" class="edge">
<title>simple_math&#45;&gt;simple_mml</title>
<path fill="none" stroke="black" stroke-dasharray="5,2" d="M28.75,-204.74C28.75,-243.49 28.75,-330.5 28.75,-330.5 28.75,-330.5 224.18,-330.5 224.18,-330.5"/>
<polygon fill="black" stroke="black" points="224.18,-334 234.18,-330.5 224.18,-327 224.18,-334"/>
</g>
<!-- simple_sorter -->
<g id="node3" class="node">
<title>simple_sorter</title>
<polygon fill="lightblue" stroke="black" points="324.12,-276.5 233.88,-276.5 233.88,-240.5 324.12,-240.5 324.12,-276.5"/>
<text xml:space="preserve" text-anchor="middle" x="279" y="-253.45" font-family="Times New Roman,serif" font-size="14.00">simple_sorter</text>
</g>
<!-- simple_math&#45;&gt;simple_sorter -->
<g id="edge2" class="edge">
<title>simple_math&#45;&gt;simple_sorter</title>
<path fill="none" stroke="black" stroke-dasharray="5,2" d="M57.75,-204.67C57.75,-226 57.75,-258.5 57.75,-258.5 57.75,-258.5 221.91,-258.5 221.91,-258.5"/>
<polygon fill="black" stroke="black" points="221.91,-262 231.91,-258.5 221.91,-255 221.91,-262"/>
</g>
<!-- simple_testing -->
<g id="node4" class="node">
<title>simple_testing</title>
<polygon fill="lightblue" stroke="black" points="326.75,-204.5 231.25,-204.5 231.25,-168.5 326.75,-168.5 326.75,-204.5"/>
<text xml:space="preserve" text-anchor="middle" x="279" y="-181.45" font-family="Times New Roman,serif" font-size="14.00">simple_testing</text>
</g>
<!-- simple_math&#45;&gt;simple_testing -->
<g id="edge3" class="edge">
<title>simple_math&#45;&gt;simple_testing</title>
<path fill="none" stroke="black" stroke-dasharray="5,2" d="M87.62,-186.5C87.62,-186.5 219.25,-186.5 219.25,-186.5"/>
<polygon fill="black" stroke="black" points="219.25,-190 229.25,-186.5 219.25,-183 219.25,-190"/>
</g>
<!-- base -->
<g id="node5" class="node">
<title>base</title>
<polygon fill="lightgray" stroke="black" points="306,-132.5 252,-132.5 252,-96.5 306,-96.5 306,-132.5"/>
<text xml:space="preserve" text-anchor="middle" x="279" y="-109.45" font-family="Times New Roman,serif" font-size="14.00">base</text>
</g>
<!-- simple_math&#45;&gt;base -->
<g id="edge4" class="edge">
<title>simple_math&#45;&gt;base</title>
<path fill="none" stroke="black" stroke-dasharray="5,2" d="M57.75,-168.33C57.75,-147 57.75,-114.5 57.75,-114.5 57.75,-114.5 240.36,-114.5 240.36,-114.5"/>
<polygon fill="black" stroke="black" points="240.36,-118 250.36,-114.5 240.36,-111 240.36,-118"/>
</g>
<!-- testing -->
<g id="node6" class="node">
<title>testing</title>
<polygon fill="lightgray" stroke="black" points="306,-60.5 252,-60.5 252,-24.5 306,-24.5 306,-60.5"/>
<text xml:space="preserve" text-anchor="middle" x="279" y="-37.45" font-family="Times New Roman,serif" font-size="14.00">testing</text>
</g>
<!-- simple_math&#45;&gt;testing -->
<g id="edge5" class="edge">
<title>simple_math&#45;&gt;testing</title>
<path fill="none" stroke="black" stroke-dasharray="5,2" d="M28.75,-168.26C28.75,-129.51 28.75,-42.5 28.75,-42.5 28.75,-42.5 240.23,-42.5 240.23,-42.5"/>
<polygon fill="black" stroke="black" points="240.23,-46 250.23,-42.5 240.23,-39 240.23,-46"/>
</g>
</g>
</svg>
